<svg width="30" height="30" viewBox="0 0 30 30" fill="none" xmlns="http://www.w3.org/2000/svg">
<g id="CheckAll">
<path id="Vector" d="M16.8187 9.31875C17.0829 9.06729 17.4344 8.92828 17.799 8.93104C18.1637 8.93379 18.513 9.07811 18.7733 9.33354C19.0336 9.58897 19.1845 9.93552 19.1941 10.3001C19.2038 10.6646 19.0714 11.0187 18.825 11.2875L11.3437 20.6438C11.2151 20.7823 11.0598 20.8935 10.8872 20.9707C10.7146 21.0479 10.5282 21.0895 10.3392 21.093C10.1502 21.0965 9.96237 21.0618 9.78703 20.9911C9.6117 20.9203 9.45242 20.815 9.31874 20.6813L4.35749 15.72C4.21933 15.5913 4.10851 15.436 4.03165 15.2635C3.95479 15.091 3.91346 14.9048 3.91013 14.716C3.9068 14.5272 3.94153 14.3396 4.01226 14.1645C4.08299 13.9894 4.18826 13.8303 4.32179 13.6968C4.45533 13.5633 4.61439 13.458 4.78949 13.3873C4.9646 13.3165 5.15215 13.2818 5.34097 13.2851C5.52979 13.2885 5.716 13.3298 5.8885 13.4067C6.061 13.4835 6.21625 13.5943 6.34499 13.7325L10.2712 17.6569L16.7812 9.36C16.7929 9.34552 16.8054 9.33175 16.8187 9.31875ZM15.0937 18.9563L16.8187 20.6813C16.9524 20.8147 17.1115 20.9198 17.2867 20.9904C17.4619 21.0609 17.6495 21.0955 17.8383 21.092C18.0271 21.0885 18.2132 21.047 18.3857 20.97C18.5581 20.893 18.7132 20.782 18.8419 20.6438L26.3269 11.2875C26.4613 11.1548 26.5676 10.9963 26.6395 10.8215C26.7113 10.6468 26.7472 10.4593 26.745 10.2704C26.7428 10.0815 26.7026 9.8949 26.6267 9.72187C26.5508 9.54884 26.4408 9.39288 26.3033 9.26331C26.1657 9.13373 26.0035 9.03319 25.8263 8.96771C25.6491 8.90222 25.4604 8.87312 25.2717 8.88214C25.083 8.89117 24.898 8.93813 24.7278 9.02024C24.5577 9.10234 24.4058 9.21789 24.2812 9.36L17.7694 17.6569L16.86 16.7456L15.0919 18.9563H15.0937Z" fill="#1AFF75"/>
</g>
</svg>
